<svg id="layer_1" data-name="layer 1" xmlns="http://www.w3.org/2000/svg" viewBox="0 0 64 64"><defs><style>.cls-1{fill:#474a5e;}</style></defs><title>book</title><path class="cls-1" d="M18.5,47h0a1.5,1.5,0,0,0,0,3H47V47Z"/><polygon class="cls-1" points="39.71 26.64 36.28 28.7 36.28 31.35 39.71 29.3 39.71 26.64"/><path class="cls-1" d="M50,14V53H18.5a4.5,4.5,0,0,1,0-9H47V8H17a6,6,0,0,0-6,6V50a6,6,0,0,0,6,6H53V14ZM41,31.59l-6,3.62V27.26l6-3.62ZM23,20.75l1.8-1.05V29.9l6.6,3.85v-2.7l-4.28-2.5V18.35L32,15.5l9,5.26-8.4,4.89v10.5l-.6.35-9-5.25Z"/></svg>