<svg id="layer_1" data-name="layer 1" xmlns="http://www.w3.org/2000/svg" viewBox="0 0 64 64"><defs><style>.cls-1{fill:#474a5e;}</style></defs><title>brand-logo-with-type</title><path id="Fill_1" data-name="Fill 1" class="cls-1" d="M12.54,51.65a.44.44,0,0,1-.45.46H8.45A.44.44,0,0,1,8,51.65V46a.45.45,0,0,1,.13-.32c.13,0,.19-.07.32-.07a.44.44,0,0,1,.46.46v4.73a.65.65,0,0,0,.13.33.49.49,0,0,0,.32.12H12a.55.55,0,0,1,.33.13.36.36,0,0,1,.19.26"/><path id="Fill_3" data-name="Fill 3" class="cls-1" d="M14.94,52.11a2.09,2.09,0,0,1-.91-.2,2.72,2.72,0,0,1-.78-.52,2.06,2.06,0,0,1-.71-1.55,2.56,2.56,0,0,1,.65-1.62,2.66,2.66,0,0,1,.71-.52,2.09,2.09,0,0,1,.91-.2,2.06,2.06,0,0,1,.91.2,1.79,1.79,0,0,1,.71.52l.13.13c.07.06.07.13.13.19s.07.13.13.2.07.12.13.19a.54.54,0,0,1,.07.32.57.57,0,0,1-.07.33c-.06.13-.06.19-.19.26s-.2.13-.26.19h-.07c-.06.13-.19.13-.32.13H13.84a.34.34,0,0,0-.26.13.28.28,0,0,0,0,.33,1.57,1.57,0,0,0,.32.39,1,1,0,0,0,.46.25,1.31,1.31,0,0,0,.52.07,2.49,2.49,0,0,0,.71-.13.59.59,0,0,0,.32-.26.36.36,0,0,1,.26-.13h.07a.37.37,0,0,1,.39.33c0,.12,0,.25-.13.32h0l-.07.06a.06.06,0,0,0-.06.07l-.07.06a.06.06,0,0,0-.06.07s-.07,0-.07.06a.06.06,0,0,0-.06.07s-.07,0-.07.06A3,3,0,0,1,14.94,52.11Zm-.06-3.76a1.28,1.28,0,0,0-.85.26c-.06.06-.13.06-.19.13l-.13.12c-.07.07-.07.07-.07.13s0,.07-.06.07a.19.19,0,0,0,0,.26.34.34,0,0,0,.32.19h2a.32.32,0,0,0,.26-.13.19.19,0,0,0,0-.26.06.06,0,0,0-.06-.06c0-.07-.07-.07-.07-.13l-.13-.13c-.06-.06-.13-.13-.19-.13l-.39-.19a.88.88,0,0,0-.45-.13Z"/><path id="Fill_5" data-name="Fill 5" class="cls-1" d="M20.71,54.7a2.53,2.53,0,0,1-.71-.13c-.13-.06-.19-.06-.32-.13a.83.83,0,0,1-.26-.19L19,53.86v-.07a.06.06,0,0,0-.07-.06c-.06-.07-.06-.13-.06-.26a.24.24,0,0,1,.06-.19c.07-.07.07-.13.13-.13a.24.24,0,0,1,.2-.07.35.35,0,0,1,.32.2.78.78,0,0,0,.33.32,1.28,1.28,0,0,0,.71.19,1.38,1.38,0,0,0,.71-.13.88.88,0,0,0,.39-.32c.07-.13.13-.32.2-.45a.4.4,0,0,1,.06-.26v-.91a1.69,1.69,0,0,1-1.3.52,2,2,0,0,1-.9-.2,1.9,1.9,0,0,1-.72-.52,1.22,1.22,0,0,1-.26-.32,1.26,1.26,0,0,0-.26-.39,2.25,2.25,0,0,1-.19-.91,2.09,2.09,0,0,1,.19-.91l.2-.38a1.31,1.31,0,0,1,.26-.33,2.89,2.89,0,0,1,.71-.52,2.06,2.06,0,0,1,.91-.19,3,3,0,0,1,.78.13h0a.89.89,0,0,0,.39.06h0a.86.86,0,0,0,.39-.13.22.22,0,0,0,.13-.06h.12a.32.32,0,0,1,.26.13.45.45,0,0,1,.13.32v4.54a2,2,0,0,1-.19.85,1.43,1.43,0,0,1-.39.64,2.18,2.18,0,0,1-.65.46A2.06,2.06,0,0,1,20.71,54.7Zm0-6.29a2,2,0,0,0-.58.13,3.33,3.33,0,0,0-.52.32,1.38,1.38,0,0,0-.32.52,1.79,1.79,0,0,0-.13.59,1.74,1.74,0,0,0,.13.58,1.93,1.93,0,0,0,.32.52,1.38,1.38,0,0,0,.52.32,1.65,1.65,0,0,0,.58.07,1.58,1.58,0,0,0,1.37-.78,1.72,1.72,0,0,0,.19-.78,1.48,1.48,0,0,0-.71-1.29A2,2,0,0,0,20.71,48.41Z"/><path id="Fill_7" data-name="Fill 7" class="cls-1" d="M25.9,52.11a2.09,2.09,0,0,1-.91-.2,1.94,1.94,0,0,1-.71-.52,2.89,2.89,0,0,1-.52-.71,1.79,1.79,0,0,1-.19-.84,2.25,2.25,0,0,1,.19-.91,1.79,1.79,0,0,1,.52-.71A3,3,0,0,1,25,47.7a2.09,2.09,0,0,1,.91-.2,1.81,1.81,0,0,1,.85.2,2.86,2.86,0,0,1,.71.45,2.07,2.07,0,0,1,.45.65,1.8,1.8,0,0,1,.2.84v1.62a.69.69,0,0,1-.72.72h-.25c-.07,0-.13-.07-.26-.07h-.07a.22.22,0,0,0-.19.07A2.57,2.57,0,0,1,25.9,52.11Zm0-3.76a1.74,1.74,0,0,0-.58.13c-.07.06-.2.06-.26.13l-.2.19a2.5,2.5,0,0,0-.32.45,2.09,2.09,0,0,0-.13.59,2,2,0,0,0,.13.58,1.31,1.31,0,0,0,.32.46,1.83,1.83,0,0,0,.46.32,2,2,0,0,0,.58.13,1.51,1.51,0,0,0,1.36-.78,1.28,1.28,0,0,0,.2-.71,1.51,1.51,0,0,0-.2-.72,1.21,1.21,0,0,0-.58-.58A1.53,1.53,0,0,0,25.9,48.35Z"/><path id="Fill_9" data-name="Fill 9" class="cls-1" d="M30.51,50.42a1,1,0,0,0,.26.46,1.79,1.79,0,0,0,.45.32.65.65,0,0,0,.33.06c.13,0,.19.07.32.13a.49.49,0,0,1,.13.26.37.37,0,0,1-.19.33.48.48,0,0,1-.39.13c-.07,0-.2-.07-.26-.07S31,52,30.9,52s-.33-.13-.46-.2-.26-.19-.39-.26a1.63,1.63,0,0,1-.45-.71,1,1,0,0,1-.13-.39V46.14a.5.5,0,0,1,.13-.32.65.65,0,0,1,.78,0,.5.5,0,0,1,.13.32v4.09c-.07,0-.07.13,0,.19"/><path id="Fill_11" data-name="Fill 11" class="cls-1" d="M33.56,47v.78a.44.44,0,0,0,.45.46h1.43a.45.45,0,0,1,.32.13.42.42,0,0,1,0,.64.45.45,0,0,1-.32.13H34a.44.44,0,0,0-.45.46v2.07a.44.44,0,0,1-.46.46.44.44,0,0,1-.45-.46V46.08a.44.44,0,0,1,.45-.46h2.34a.44.44,0,0,1,.45.46.45.45,0,0,1-.13.32.5.5,0,0,1-.32.13H34a.44.44,0,0,0-.45.45"/><path id="Fill_13" data-name="Fill 13" class="cls-1" d="M38.81,52.11a2.34,2.34,0,0,1-.91-.2,1.79,1.79,0,0,1-.71-.52,1,1,0,0,1-.26-.32l-.19-.39a2.06,2.06,0,0,1,0-1.75A2.46,2.46,0,0,1,38,47.7a2.06,2.06,0,0,1,1.75,0,1.79,1.79,0,0,1,.71.52,2.66,2.66,0,0,1,.52.71,2.06,2.06,0,0,1,0,1.75,1.79,1.79,0,0,1-.52.71,2.66,2.66,0,0,1-.71.52A2.3,2.3,0,0,1,38.81,52.11Zm0-3.76h-.32c-.07,0-.2.06-.26.06s-.2.07-.26.13l-.2.2a1.63,1.63,0,0,0-.32.45,1.74,1.74,0,0,0-.13.58,1.79,1.79,0,0,0,.13.59,1.12,1.12,0,0,0,.32.45,2.2,2.2,0,0,0,.46.33,2,2,0,0,0,.58.12,1.94,1.94,0,0,0,.58-.12,1.21,1.21,0,0,0,.46-.33l.19-.19c.07-.07.07-.2.13-.26a.38.38,0,0,0,.07-.26v-.33a2,2,0,0,0-.13-.58C40,49.12,40,49,40,48.93l-.2-.19-.19-.2c-.07-.06-.2-.06-.26-.13S39,48.35,38.81,48.35Z"/><path id="Fill_15" data-name="Fill 15" class="cls-1" d="M45.49,47.7a.43.43,0,0,1,.13.26V48a.46.46,0,0,1-.39.39h0a1.73,1.73,0,0,0-.52.13,4.19,4.19,0,0,0-.45.26,1.57,1.57,0,0,0-.32.39,4.09,4.09,0,0,0-.2.52v1.94a.65.65,0,0,1-.13.33.31.31,0,0,1-.45.06L43.09,52a.55.55,0,0,1-.13-.33V48.09c0-.13.07-.2.13-.33a.58.58,0,0,1,.26-.13.34.34,0,0,1,.26.13v.07h0l.07.06.06.07h.07c.06,0,.06,0,.13-.07s.06-.06.12-.06.07-.07.13-.07.07-.06.13-.06.07-.07.13-.07a.89.89,0,0,1,.39-.06h.33a.36.36,0,0,1,.32.13"/><path id="Fill_17" data-name="Fill 17" class="cls-1" d="M50.55,50.81a.51.51,0,0,1,.26.26c0,.13,0,.26-.13.32a.84.84,0,0,1-.26.2.49.49,0,0,1-.26.13,2.31,2.31,0,0,1-1.3.26,2.37,2.37,0,0,1-1-.2,2.32,2.32,0,0,1-.84-.52,2,2,0,0,1-.59-.71,1.1,1.1,0,0,1-.19-.71,2.43,2.43,0,0,1,.19-.91,2,2,0,0,1,.59-.71,3.59,3.59,0,0,1,.84-.52,2.63,2.63,0,0,1,1-.2,3,3,0,0,1,1.3.26,1.45,1.45,0,0,1,.52.33c.13.06.13.19.13.32a.45.45,0,0,1-.26.33.4.4,0,0,1-.26.06.49.49,0,0,1-.26-.13,1.47,1.47,0,0,0-.39-.26,1.72,1.72,0,0,0-.78-.19,2.08,2.08,0,0,0-.64.13,1.31,1.31,0,0,0-.52.32,3,3,0,0,0-.39.45,1.79,1.79,0,0,0-.13.59,1.74,1.74,0,0,0,.13.58.82.82,0,0,0,.39.46,1.31,1.31,0,0,0,.52.32,2.08,2.08,0,0,0,.64.13,1.72,1.72,0,0,0,.78-.19,1.47,1.47,0,0,0,.39-.26c.07.06.13.06.26.06h.26"/><path id="Fill_19" data-name="Fill 19" class="cls-1" d="M53.86,52.11a2.09,2.09,0,0,1-.91-.2,2.72,2.72,0,0,1-.78-.52,2.1,2.1,0,0,1-.71-1.62,2.32,2.32,0,0,1,.19-.91,1.94,1.94,0,0,1,.52-.71,3.15,3.15,0,0,1,.72-.52,2.25,2.25,0,0,1,1.81,0,1.9,1.9,0,0,1,.72.52l.13.13c.06.07.06.13.13.2s.06.13.13.19.06.13.13.19a.65.65,0,0,1,.06.33.61.61,0,0,1-.06.32c-.07.13-.07.2-.2.26s-.19.13-.26.2h-.06a.39.39,0,0,1-.39.19H52.76a.34.34,0,0,0-.26.13.28.28,0,0,0,0,.33,1.57,1.57,0,0,0,.32.39,1,1,0,0,0,.46.25,1.29,1.29,0,0,0,.51.07,1.43,1.43,0,0,0,.72-.19.64.64,0,0,0,.32-.26c.07-.07.13-.13.2-.13h.06a.26.26,0,0,1,.2.06.37.37,0,0,1,.19.33c0,.12,0,.25-.13.32h0l-.06.06a.07.07,0,0,0-.07.07l-.06.06a.07.07,0,0,0-.07.07.06.06,0,0,0-.06.06H55a.06.06,0,0,0-.06.07A1.81,1.81,0,0,1,53.86,52.11Zm-.07-3.76a1.27,1.27,0,0,0-.84.26c-.06.06-.13.06-.19.13l-.13.12c-.07.07-.07.07-.07.13l-.06.07a.19.19,0,0,0,0,.26.49.49,0,0,0,.26.13h2a.36.36,0,0,0,.26-.13.21.21,0,0,0,0-.26A.07.07,0,0,0,55,49v-.06l-.06-.07c0-.06-.07-.06-.13-.12s-.13-.13-.2-.13l-.39-.2a2.27,2.27,0,0,0-.39-.06Z"/><path id="Fill_21" data-name="Fill 21" class="cls-1" d="M32.91,24.67l12.71-7.39L32,9.3l-7.39,4.34V29.08l6.48,3.76v4.09l-10-5.84V15.65l-2.72,1.63V33.17L32,41.08l.91-.52Z"/><path id="Fill_23" data-name="Fill 23" class="cls-1" d="M36.54,39.14V27.07l9.08-5.45V33.69Zm7.14-13-5.19,3.12v4l5.19-3.12Z"/></svg>