<svg id="アートボード_1" data-name="アートボード 1" xmlns="http://www.w3.org/2000/svg" viewBox="0 0 200 64"><defs><style>.cls-1{fill:#474a5e;}</style></defs><title>アートボード 1</title><path id="パス_7630" data-name="パス 7630" class="cls-1" d="M77.35,37.2a1.18,1.18,0,0,1-.34.87,1.2,1.2,0,0,1-.84.34H66.94a1.17,1.17,0,0,1-1.2-1.13V21.17a1.2,1.2,0,1,1,2.4,0V34.8A1.21,1.21,0,0,0,69.35,36h6.82a1.14,1.14,0,0,1,.84.34A1.12,1.12,0,0,1,77.35,37.2Z"/><path id="パス_7631" data-name="パス 7631" class="cls-1" d="M86.89,35.88a3.75,3.75,0,0,0,.94-.74,1.14,1.14,0,0,1,.64-.31,1,1,0,0,1,.71.11,1.19,1.19,0,0,1,.29,1.87l-.13.13-.18.16-.16.13a.8.8,0,0,1-.19.13.71.71,0,0,0-.18.12.76.76,0,0,1-.19.12l-.15.1a.69.69,0,0,1-.19.1,6.56,6.56,0,0,1-8.95-2.49,6.44,6.44,0,0,1-.34-.7,6.35,6.35,0,0,1-.53-2.54,6.57,6.57,0,0,1,1.85-4.64A6.52,6.52,0,0,1,82.19,26a6.36,6.36,0,0,1,7.12,1.44,5.72,5.72,0,0,1,.4.46l.37.51a4.86,4.86,0,0,1,.33.54c.1.18.18.37.28.57a2.36,2.36,0,0,1,.18.95,2.3,2.3,0,0,1-.18.9,2.25,2.25,0,0,1-.46.79,2.43,2.43,0,0,1-.76.55l-.19.09a2.73,2.73,0,0,1-1,.24h-6.3a.83.83,0,0,0-.83.84.8.8,0,0,0,.15.47,3.85,3.85,0,0,0,.91,1.06,4.27,4.27,0,0,0,1.21.69,4.72,4.72,0,0,0,3.52-.22Zm-5.61-6.11a.4.4,0,0,0-.1.18.7.7,0,0,0,0,.76.85.85,0,0,0,.76.43H87.5a.86.86,0,0,0,.77-.43.68.68,0,0,0,0-.76,1.45,1.45,0,0,0-.1-.18c0-.06-.15-.24-.24-.38a2.24,2.24,0,0,0-.33-.36,3.89,3.89,0,0,0-.48-.43A4.23,4.23,0,0,0,86,28a4.18,4.18,0,0,0-1.22-.23h-.1a3.94,3.94,0,0,0-2.3.74,4.33,4.33,0,0,0-.52.42,3.06,3.06,0,0,0-.34.39C81.46,29.49,81.37,29.63,81.28,29.77Z"/><path id="パス_7632" data-name="パス 7632" class="cls-1" d="M105.22,26.92V39.44a9.47,9.47,0,0,1-.5,2.29,5.24,5.24,0,0,1-1.13,1.84,4.91,4.91,0,0,1-1.84,1.24,7.68,7.68,0,0,1-2.69.45,6.15,6.15,0,0,1-2-.31,6.79,6.79,0,0,1-.87-.39,5.07,5.07,0,0,1-.79-.51,6.31,6.31,0,0,1-1-1,.24.24,0,0,1-.06-.09l-.1-.15a1.1,1.1,0,0,1-.21-.65,1.27,1.27,0,0,1,.58-1,1.21,1.21,0,0,1,1.61.33,3.24,3.24,0,0,0,.9.87A3.6,3.6,0,0,0,99,42.8a5,5,0,0,0,1.92-.31,2.92,2.92,0,0,0,1.13-.87,3.25,3.25,0,0,0,.53-1.32,4.91,4.91,0,0,0,.1-.77c0-.28,0-.55,0-.83V37.14A5.14,5.14,0,0,1,99,38.65a6.37,6.37,0,0,1-2.55-.53,6.26,6.26,0,0,1-2.08-1.4,5.55,5.55,0,0,1-.78-1A8.23,8.23,0,0,1,93,34.64a6.55,6.55,0,0,1-.5-2.58A6.42,6.42,0,0,1,93,29.5a8.87,8.87,0,0,1,.63-1.12,6,6,0,0,1,.79-1,6.67,6.67,0,0,1,4.64-1.92,5.21,5.21,0,0,1,2.14.42h0l.08,0a2.21,2.21,0,0,0,1.07.24,2.16,2.16,0,0,0,1-.3l.27-.1a1.14,1.14,0,0,1,1.18.28A1.09,1.09,0,0,1,105.22,26.92Zm-6.16,9.43a4.34,4.34,0,0,0,2.22-.61,4.23,4.23,0,0,0,1.53-1.61,4.51,4.51,0,0,0,.53-2.07,4.34,4.34,0,0,0-2.06-3.62,4.32,4.32,0,0,0-3.88-.31A4.77,4.77,0,0,0,96,29a4.26,4.26,0,0,0-.9,1.35,4.16,4.16,0,0,0-.34,1.67,3.76,3.76,0,0,0,.34,1.65,4.31,4.31,0,0,0,.38.74,3.49,3.49,0,0,0,.52.63A4.17,4.17,0,0,0,97.4,36,3.82,3.82,0,0,0,99.06,36.35Z"/><path id="パス_7633" data-name="パス 7633" class="cls-1" d="M120.08,36.4a2,2,0,0,1-2,2h-.18a2.18,2.18,0,0,1-.57-.08,5,5,0,0,0-.67-.14,1.48,1.48,0,0,0-.72.08,5.34,5.34,0,0,1-2.13.4,6.47,6.47,0,0,1-2.57-.5,6.61,6.61,0,0,1-2.08-1.43,7.18,7.18,0,0,1-1.4-2.08,6.72,6.72,0,0,1-.52-2.58,6.19,6.19,0,0,1,.52-2.55,6.59,6.59,0,0,1,6.06-4,5.88,5.88,0,0,1,2.42.48,6.17,6.17,0,0,1,3.8,5.73Zm-6.22,0a4.27,4.27,0,0,0,.2-8.54h-.2a4.12,4.12,0,0,0-1.66.35,4,4,0,0,0-.74.38,4.48,4.48,0,0,0-.64.51,5.19,5.19,0,0,0-.9,1.36,4.3,4.3,0,0,0-.32,1.66,4.21,4.21,0,0,0,2.58,4,4.38,4.38,0,0,0,1.68.34Z"/><path id="パス_7634" data-name="パス 7634" class="cls-1" d="M125.79,33.64a3.25,3.25,0,0,0,.64,1.27,3.1,3.1,0,0,0,1.13.86,3.85,3.85,0,0,0,.81.27,1.3,1.3,0,0,1,.7.42,1.11,1.11,0,0,1,.27.76,1.16,1.16,0,0,1-.45.91,1.1,1.1,0,0,1-1,.24,4.58,4.58,0,0,1-.66-.19,6,6,0,0,1-2.54-1.6,5.79,5.79,0,0,1-1.12-2,5.06,5.06,0,0,1-.29-1.16,8,8,0,0,1-.08-1.29V21.18A1.18,1.18,0,0,1,124.39,20a1.13,1.13,0,0,1,.85.35,1.21,1.21,0,0,1,.35.86V32.11a5.16,5.16,0,0,0,.06.79C125.7,33.14,125.76,33.39,125.79,33.64Z"/><path id="パス_7635" data-name="パス 7635" class="cls-1" d="M135.11,23.84V26a1.32,1.32,0,0,0,1.31,1.29h4a1.22,1.22,0,0,1,.9.38,1.3,1.3,0,0,1-.9,2.2h-4a1.3,1.3,0,0,0-1.31,1.29v6a1.27,1.27,0,0,1-.38.9,1.29,1.29,0,0,1-1.81,0h0a1.23,1.23,0,0,1-.38-.9V21.26A1.29,1.29,0,0,1,133.82,20h6.64a1.18,1.18,0,0,1,.9.38,1.23,1.23,0,0,1,.39.9,1.31,1.31,0,0,1-1.29,1.29h-4A1.29,1.29,0,0,0,135.11,23.84Z"/><path id="パス_7636" data-name="パス 7636" class="cls-1" d="M150,25.5a6.44,6.44,0,0,1,2.56.52,6.83,6.83,0,0,1,3.51,3.51,6.55,6.55,0,0,1-1.43,7.21,5.87,5.87,0,0,1-2.08,1.43,6.75,6.75,0,0,1-5.11,0,6.62,6.62,0,0,1-2.11-1.43,5.68,5.68,0,0,1-.79-1,7.78,7.78,0,0,1-.61-1.14,6.58,6.58,0,0,1,3.49-8.6A6.17,6.17,0,0,1,150,25.5Zm0,10.86a4.55,4.55,0,0,0,1.67-.32,5.34,5.34,0,0,0,1.35-.91,3.75,3.75,0,0,0,.91-1.35,2.78,2.78,0,0,0,.26-.8,4.11,4.11,0,0,0,.08-.86,4,4,0,0,0-.34-1.67,4.22,4.22,0,0,0-.38-.73,4.48,4.48,0,0,0-.51-.64,4.08,4.08,0,0,0-.63-.54,4,4,0,0,0-.74-.38,4.17,4.17,0,0,0-1.67-.35,4.91,4.91,0,0,0-.86.08,2.64,2.64,0,0,0-.79.27,4,4,0,0,0-.74.38,3.06,3.06,0,0,0-.63.51,5.56,5.56,0,0,0-.93,1.36,4.7,4.7,0,0,0-.31,1.66,4.21,4.21,0,0,0,.34,1.68A4.33,4.33,0,0,0,148.4,36a4.22,4.22,0,0,0,1.64.34Z"/><path id="パス_7637" data-name="パス 7637" class="cls-1" d="M167.47,25.84a1.08,1.08,0,0,1,.35.81v.13a1.1,1.1,0,0,1-.35.82,1.07,1.07,0,0,1-.81.34h0a5.09,5.09,0,0,0-1.6.29,4.94,4.94,0,0,0-1.45.82,4.78,4.78,0,0,0-1.11,1.18,3.58,3.58,0,0,0-.51,1.48v5.46a1.2,1.2,0,0,1-2.4,0V27a1.12,1.12,0,0,1,.33-.87,1.19,1.19,0,0,1,.86-.37,1.07,1.07,0,0,1,.86.37.31.31,0,0,0,.11.09.36.36,0,0,1,.07.1,1.24,1.24,0,0,1,.22.18.36.36,0,0,0,.24.13h.13a.79.79,0,0,0,.37-.1c.1-.06.24-.12.38-.19l.45-.21.45-.18.38-.13a9,9,0,0,1,1.15-.23,9.59,9.59,0,0,1,1.07-.06h0a1.17,1.17,0,0,1,.82.34Z"/><path id="パス_7638" data-name="パス 7638" class="cls-1" d="M179.48,35a1.13,1.13,0,0,1,.52,1.5,1.31,1.31,0,0,1-.27.35,5.25,5.25,0,0,1-.62.53c-.24.17-.48.32-.72.46a6.48,6.48,0,0,1-3.25.84,6.24,6.24,0,0,1-2.55-.5,6,6,0,0,1-2.09-1.42,6.11,6.11,0,0,1-1.42-2.09,6.34,6.34,0,0,1-.5-2.55,6.47,6.47,0,0,1,.5-2.57,6.21,6.21,0,0,1,1.42-2.08A6.11,6.11,0,0,1,172.59,26a6.61,6.61,0,0,1,5.8.32,6.94,6.94,0,0,1,1.35,1,1.11,1.11,0,0,1,.34,1,1.13,1.13,0,0,1-.61.88,1.1,1.1,0,0,1-.69.12,1.13,1.13,0,0,1-.65-.31,3.82,3.82,0,0,0-1-.72,4.1,4.1,0,0,0-2-.5,3.7,3.7,0,0,0-1.64.35,4.41,4.41,0,0,0-2.29,2.27,4.18,4.18,0,0,0-.35,1.68,3.83,3.83,0,0,0,.35,1.63,4.19,4.19,0,0,0,.92,1.36,4,4,0,0,0,1.36.9,3.67,3.67,0,0,0,1.63.34,4.06,4.06,0,0,0,2-.5,4.16,4.16,0,0,0,1-.72,1.24,1.24,0,0,1,.64-.31A1.06,1.06,0,0,1,179.48,35Z"/><path id="パス_7639" data-name="パス 7639" class="cls-1" d="M190.59,35.88a3.77,3.77,0,0,0,1-.72,1.14,1.14,0,0,1,.63-.31,1,1,0,0,1,.72.1,1.1,1.1,0,0,1,.61.87,1.06,1.06,0,0,1-.32,1,.8.8,0,0,1-.13.13l-.19.16-.15.13a.62.62,0,0,1-.18.14,1.18,1.18,0,0,0-.19.11.71.71,0,0,1-.18.12l-.16.11-.19.1A6.59,6.59,0,0,1,184,36.74a6.44,6.44,0,0,1-1.42-2.11,6.77,6.77,0,0,1-.53-2.55,6,6,0,0,1,.5-2.55,6.29,6.29,0,0,1,1.36-2.09,6.38,6.38,0,0,1,9-.14,1.85,1.85,0,0,1,.14.14,4.28,4.28,0,0,1,.4.45c.12.18.24.34.37.52a4.86,4.86,0,0,1,.33.54q.13.27.27.57a2.19,2.19,0,0,1,.18.94,2,2,0,0,1-.18.91,2.22,2.22,0,0,1-.45.79,2.37,2.37,0,0,1-.76.57l-.19.09a2.56,2.56,0,0,1-1.05.24h-6.31a.84.84,0,0,0-.84.84.83.83,0,0,0,.15.48,4,4,0,0,0,.91,1,4.27,4.27,0,0,0,1.21.69,4.59,4.59,0,0,0,1.48.24A4.38,4.38,0,0,0,190.59,35.88ZM185,29.77a.31.31,0,0,0-.11.18.72.72,0,0,0,0,.76.88.88,0,0,0,.77.43h5.52a.88.88,0,0,0,.77-.43.7.7,0,0,0,0-.76.54.54,0,0,0-.11-.18,3.76,3.76,0,0,0-.24-.38,1.86,1.86,0,0,0-.33-.36,2.83,2.83,0,0,0-.48-.43,4.23,4.23,0,0,0-1.1-.56,4.18,4.18,0,0,0-1.21-.23h-.11a3.93,3.93,0,0,0-2.29.74,3.49,3.49,0,0,0-.53.42,3.17,3.17,0,0,0-.34.39,3.38,3.38,0,0,0-.24.41Z"/><path id="パス_7640" data-name="パス 7640" class="cls-1" d="M27.6,31.19,47,20h0L26.2,8,14.92,14.51V37.83l9.89,5.71v6.18L9.57,40.93V17.6L5.42,20V44L26.2,56l1.4-.81Z"/><path id="パス_7641" data-name="パス 7641" class="cls-1" d="M32.94,34.28V52.11L47,44V26.17Zm10.65,4.86-7.87,4.54V37.8l7.87-4.53Z"/></svg>