<svg xmlns="http://www.w3.org/2000/svg" viewBox="0 0 18.003 18">
  <defs>
    <style>
      .cls-1 {
        fill: #d2397c;
      }
    </style>
  </defs>
  <g id="warning" transform="translate(0)">
    <path id="パス_9670" data-name="パス 9670" class="cls-1" d="M17,9.631l7.541,15.034H9.46ZM17,8a1.3,1.3,0,0,0-1.069.784L8.248,24.1C7.66,25.145,8.158,26,9.373,26H24.64c1.2,0,1.7-.855,1.125-1.9h0L18.07,8.784A1.3,1.3,0,0,0,17,8Z" transform="translate(-8.001 -8)"/>
    <path id="パス_9671" data-name="パス 9671" class="cls-1" d="M31.25,45.125A1.125,1.125,0,1,1,30.125,44,1.125,1.125,0,0,1,31.25,45.125Z" transform="translate(-21.126 -30.5)"/>
    <path id="パス_9672" data-name="パス 9672" class="cls-1" d="M30.125,31.625A1.125,1.125,0,0,1,29,30.5V27.125a1.125,1.125,0,0,1,2.25,0V30.5A1.125,1.125,0,0,1,30.125,31.625Z" transform="translate(-21.126 -19.25)"/>
  </g>
</svg>
