<svg id="レイヤー_2" data-name="レイヤー 2" xmlns="http://www.w3.org/2000/svg" viewBox="0 0 800 800"><defs><style>.cls-1{fill:#b9b9b9}</style></defs><path class="cls-1" d="M526.28 241.34A156.5 156.5 0 1 1 334.61 352a156.52 156.52 0 0 1 191.67-110.66zm9.18-34.24a192 192 0 1 0 25.95 361.37l12.1 21c-10.44 11.17-12.51 28.53-4.42 42.45l63.39 110.65a35.92 35.92 0 0 0 49 13.13l21-12.1a35.92 35.92 0 0 0 13.13-49l-64.16-110.23a35.57 35.57 0 0 0-39.16-16.82l-12.11-21a191.89 191.89 0 0 0-64.72-339.45z" id="surface1"/><path class="cls-1" d="M340 488.39l-7.49-1.84 1.43-5.83 4.15 1 4.95-5.08 2 3.26c1 1.66 2.11 3.33 3.19 4.95l-5 3.34-1.26-1.9zM320.52 483.6l-12-3 1.44-5.83 12 2.95zm-24-5.9l-12-2.95 1.44-5.83 12 2.95zm-24-5.9l-12-2.95 1.38-5.85 12 3zM248.46 465.9l-8.11-1.99v-8.35h6v3.64l3.54.87-1.43 5.83zM246.35 443.33h-6v-12.22h6zm0-24.44h-6v-12.22h6zm0-24.44h-6v-12.22h6zm0-24.45h-6v-12.22h6zM246.35 345.56h-6v-7.26l5.19-5.08 4.2 4.29-3.39 3.31v4.74zM260.6 326.87l-.33-.34h-.48v-.49l-3.39-3.46 9.39-9.19v13.14h-4.84l-.35.34zM265.79 420.8h-6V409h6zm0-23.57h-6v-11.78h6zm0-23.57h-6v-11.78h6zm0-23.57h-6v-11.78h6zM267.88 442.95l-8.09-2.03v-8.34h6v3.66l3.55.89-1.46 5.82zM311.72 453.94l-11-2.75 1.46-5.82 11 2.75zm-21.92-5.5l-11-2.74 1.46-5.82 11 2.74zM334.21 459.57l-11.53-2.89 1.46-5.82.24.06c0-.09-.07-.18-.11-.28l5.65-2a177.2 177.2 0 0 0 2.1 5.51zM321.83 443.35c-.76-2.44-1.47-4.93-2.12-7.4l5.8-1.52c.63 2.38 1.32 4.79 2.05 7.14zM317.93 428.46c-.3-1.35-.57-2.72-.83-4.08l-4-1 1.5-5.81 7.68 2 .34 1.9c.34 1.92.72 3.86 1.13 5.79z"/><path class="cls-1" transform="rotate(-75.59 303.651 417.82)" d="M300.64 414.29h6v7.06h-6z"/><path class="cls-1" d="M292.64 418.09l-8.06-2.07v-8.33h6v3.68l3.55.91-1.49 5.81zM290.58 396h-6v-11.75h6zm0-23.44h-6v-11.75h6zm0-23.44h-6v-11.75h6zm0-23.44h-6v-11.75h6zM290.58 302.21h-6v-7.26l5.18-5.08 4.2 4.28-3.38 3.32v4.74zM302.55 285.73l-4.2-4.28 8.58-8.42 4.2 4.28zm17.17-16.84l-4.2-4.28 8.59-8.42 4.2 4.28zM336.89 252.05l-4.2-4.28 5.55-5.43 7.44 2.19-1.69 5.75-4.07-1.19-3.03 2.96z"/><path class="cls-1" transform="rotate(-73.59 361.136 252.205)" d="M358.12 246.54h6v11.32h-6z"/><path class="cls-1" d="M383.78 262l-7.22-2.12 1.7-5.76 4.3 1.27c1.22-.92 2.46-1.83 3.69-2.7l3.48 4.89c-1.59 1.13-3.18 2.3-4.74 3.5zM399.63 251.06l-3.12-5.12c3.47-2.12 7.07-4.14 10.7-6l2.75 5.33c-3.5 1.8-6.96 3.73-10.33 5.79zm21.05-10.85l-2.37-5.51c3.75-1.61 7.61-3.1 11.45-4.43l2 5.67c-3.76 1.29-7.47 2.72-11.08 4.27zm22.37-7.74l-1.55-5.8c3.94-1.06 8-2 12-2.75l1.14 5.89c-3.9.74-7.79 1.64-11.59 2.66zM466.3 228l-.71-6c4.05-.48 8.17-.82 12.24-1l.28 6c-3.93.2-7.9.53-11.81 1zm35.47-.35c-3.91-.39-7.89-.64-11.82-.74l.16-6c4.07.11 8.19.37 12.25.76zM522.94 231.07l-3.61-.75c-1.91-.4-3.86-.77-5.79-1.1l1-5.91c.8.13 1.59.27 2.39.42v-2.35h6zM193.83 210.27h-.58c-2-.09-4-.21-5.95-.35l.44-6c1.72.13 3.47.24 5.21.32l5.25-1.83 2 5.66zm329.11-.91h-6v-12h6zm-347.77-.71c-4.09-.54-8.14-1.21-12-2l1.18-5.88c3.77.76 7.7 1.41 11.66 1.93zm36.36-4.57l-2-5.67 11.35-4 2 5.67zm-60.32-.25c-4-1.11-7.91-2.36-11.67-3.74l2.06-5.64c3.61 1.33 7.39 2.53 11.22 3.59zm83-7.7l-2-5.66 11.34-4 2 5.66zm-106-.76c-3.73-1.74-7.39-3.67-10.88-5.73l3.05-5.17c3.32 2 6.82 3.8 10.38 5.47zm128.71-7.18l-2-5.66 11.35-4 2 5.66zm266-2.88h-6v-12h6zm-416-3a12.85 12.85 0 0 1-1.47-1.67 16 16 0 0 1-4.38-11.05h6a10.11 10.11 0 0 0 2.87 7.07l.24.25.18.29a8.91 8.91 0 0 0 .76.82zm172.69-2.07l-2-5.66 11.34-4 2 5.67zm22.69-7.94l-2-5.67 11.35-4 2 5.66zm22.7-7.95l-2-5.66 11.35-4 2 5.66zm-214-2.8l-3.66-4.75a16.18 16.18 0 0 1 4.33-2.38l7.57-2.65 2 5.66-7.54 2.64a10.53 10.53 0 0 0-2.7 1.49zm411.92-.29h-6v-12h6zm-175.25-4.85l-2-5.66 11.35-4 2 5.66zm-215.1-2.95l-2-5.66 11.35-4 2 5.66zm237.79-5l-2-5.67 11.35-4 2 5.67zm-215.09-2.95l-2-5.67 11.35-4 2 5.67zm237.79-5l-2-5.66 11.34-4 2 5.66zM178 137.58l-2-5.66 11.34-4 2 5.66zm345-.35h-6v-8a23.18 23.18 0 0 0-.27-3.52l5.92-.92a28.68 28.68 0 0 1 .35 4.44zm-107.17-4.64l-2-5.66 11.35-4 2 5.66zm-215.1-3l-2-5.66L210 120l2 5.67zm237.8-5l-2-5.66 11.35-4 2 5.67zm-215.1-3l-2-5.66 11.35-4 2 5.66zm237.79-5l-2-5.67 11.35-4 2 5.66zm51.51-.76a22.52 22.52 0 0 0-5.31-5.27 21.1 21.1 0 0 0-2.65-1.62l2.78-5.32a27.17 27.17 0 0 1 3.34 2.05 28.29 28.29 0 0 1 6.71 6.66zm-266.61-2.2l-2-5.66 11.34-4 2 5.66zm237.8-5l-2-5.66 2.84-1a28.5 28.5 0 0 1 9.51-1.63h.37l-.08 6h-.29a22.64 22.64 0 0 0-7.52 1.29zm-215.11-3l-2-5.67 11.35-4 2 5.66zm22.7-8l-2-5.66 11.35-4 2 5.66zm22.69-7.94l-2-5.67 11.35-4 2 5.67zm22.69-8l-2-5.66 11.35-4 2 5.66zM359.53 74l-2-5.66 11.34-4 2 5.67zM386.31 71.45l-1.31-1a9.2 9.2 0 0 1-.58-.51l-.18-.17a9.67 9.67 0 0 0-3.34-1.52l1.42-5.83a15.85 15.85 0 0 1 5.13 2.27l4-1.46 2 5.65zM401.39 66l-2-5.64 3.15-1.14a22.44 22.44 0 0 0-.95-2.64l5.52-2.37a28.57 28.57 0 0 1 1.9 6.42l.42 2.48zM193.82 659.28h-.58l-3.92-.22.38-6 3.25.19 7.13-2.5 2 5.66zm-16.63-1.37c-4.1-.5-8.15-1.12-12.06-1.84l1.09-5.9c3.79.7 7.72 1.3 11.69 1.78zm-24-4.49c-4-1-8-2.24-11.73-3.54l2-5.67c3.62 1.25 7.41 2.4 11.27 3.4zm60.21-1l-2-5.66 11.35-4 2 5.66zm-83.35-7.07c-3.79-1.7-7.48-3.58-11-5.58l3-5.21c3.32 1.91 6.83 3.7 10.44 5.32zm106.05-.87l-2-5.67 11.35-4 2 5.67zm22.7-8l-2-5.66 11.35-4 2 5.66zm-150.07-3.46a104.8 104.8 0 0 1-9.56-7.85l4.07-4.4a100.56 100.56 0 0 0 9 7.39zm172.76-4.48l-2-5.66 11.35-4 2 5.66zm22.7-7.94l-2-5.67 11.35-4 2 5.66zm-213.58-4.4a89.28 89.28 0 0 1-7.31-10.07l5.1-3.13a82.82 82.82 0 0 0 6.82 9.39zm236.29-3.5l-2-5.66 11.35-4 2 5.66zm22.7-7.94l-2-5.66 11.35-4 2 5.67zm22.7-7.94l-2-5.67 11.35-4 2 5.66zm-294.71-1.88c-.32-.86-.46-1.32-.46-1.32l-.13-.42v-11.29h6v10.34c0 .15.12.34.21.56zM395 588.87l-2-5.66 11.35-4 2 5.66zm22.69-7.94l-2-5.67 11.35-4 2 5.67zm22.7-7.94l-2-5.67 11.35-4 2 5.66zM83 569.88h-6v-12h6zm0-24h-6v-12h6zm0-24h-6v-12h6zm0-24h-6v-12h6zm0-24.05h-6v-12h6zm0-24.05h-6v-12h6zm0-24.05h-6v-12h6zm0-24h-6v-12h6zm0-24.05h-6v-12h6zm0-24.05h-6v-12h6zm0-24.05h-6v-12h6zm0-24h-6v-12h6zm0-24h-6v-12h6zm0-24.05h-6v-12h6zm0-24h-6v-12h6zm0-24.05h-6v-12h6zm0-24h-6v-12h6zm0-23.94l-6-.54a28.83 28.83 0 0 1 3.55-12.82l5.27 2.82A22.7 22.7 0 0 0 83 161.17zm9.87-17.93l-3.38-5a28.5 28.5 0 0 1 6.72-3.4l5-1.74 2 5.66-5 1.74a23.13 23.13 0 0 0-5.32 2.37zm21.63-8.4l-2-5.66 11.35-4 2 5.66zm22.7-7.94l-2-5.67 11.35-4 2 5.66zm22.7-8l-2-5.66 11.34-4 2 5.67zm22.7-8l-2-5.66 11.35-4 2 5.66zm22.69-7.94l-2-5.67 11.35-4 2 5.66zm22.7-8l-2-5.66 11.35-4 2 5.66zm22.7-7.94l-2-5.67 11.35-4 2 5.66zm22.69-8l-2-5.66 11.35-4 2 5.67zm22.7-8l-2-5.66 11.35-4 2 5.66zm22.7-7.94l-2-5.66 11.35-4 2 5.66zm22.7-7.95l-2-5.66 11.35-4 2 5.66zm53.76-7.23a22.66 22.66 0 0 0-9.43-4.66l1.33-5.85a28.82 28.82 0 0 1 11.93 5.89zm-31.07-.71l-2-5.67 9.15-3.2c.81-.28 1.65-.54 2.48-.75l1.48 5.81c-.66.17-1.33.37-2 .6zM463.15 565l-.87-2.47-.84-.12.23-1.62-.51-1.45.76-.27.37-2.6c1.93.28 3.9.52 5.85.74l13.2 1.43zM448.59 560.07c-2.41-.53-4.85-1.13-7.24-1.77-1.79-.48-3.6-1-5.39-1.54l1.74-5.76c1.72.52 3.48 1 5.21 1.48 2.3.62 4.66 1.2 7 1.72zm-25-7.56c-4-1.57-8.08-3.31-12-5.18l2.58-5.41c3.78 1.8 7.68 3.48 11.58 5zm-23.55-11.25c-3.76-2.17-7.48-4.5-11.06-7l3.38-5c3.46 2.37 7.05 4.62 10.67 6.7zm-21.54-14.72c-3.38-2.71-6.7-5.59-9.87-8.55l4.1-4.38c3.06 2.85 6.26 5.63 9.52 8.25zm-19.06-17.83a174.82 174.82 0 0 1-8.46-9.95l4.72-3.71c2.59 3.29 5.34 6.52 8.16 9.6zM410.88 475.77h-4.43L389.61 450v25.78h-4.44v-33.46h4.44l16.88 25.89v-25.89h4.39zM416.92 463.11a14.61 14.61 0 0 1 1.44-6.57 10.64 10.64 0 0 1 4-4.5 10.81 10.81 0 0 1 5.84-1.59 10.49 10.49 0 0 1 8.22 3.52 13.57 13.57 0 0 1 3.13 9.35v.29a14.79 14.79 0 0 1-1.39 6.52 10.58 10.58 0 0 1-4 4.49 11.06 11.06 0 0 1-5.94 1.61 10.47 10.47 0 0 1-8.19-3.52 13.44 13.44 0 0 1-3.14-9.3zm4.28.5a10.62 10.62 0 0 0 1.91 6.64 6.49 6.49 0 0 0 10.28 0c1.28-1.69 1.91-4.06 1.91-7.11a10.64 10.64 0 0 0-1.94-6.63 6.45 6.45 0 0 0-10.24 0c-1.28 1.61-1.92 3.99-1.92 7.1zM450.65 444.89v6h4.64v3.29h-4.64v15.43a3.4 3.4 0 0 0 .62 2.24 2.59 2.59 0 0 0 2.11.75 9.91 9.91 0 0 0 2-.28v3.43a12.56 12.56 0 0 1-3.26.46 5.31 5.31 0 0 1-4.3-1.73 7.43 7.43 0 0 1-1.44-4.89V454.2h-4.53v-3.29h4.53v-6zM474 475.77V454.2h-3.93v-3.29H474v-2.55a8.5 8.5 0 0 1 2.13-6.18 8.1 8.1 0 0 1 6-2.18 11.16 11.16 0 0 1 2.92.39l-.23 3.42a12 12 0 0 0-2.3-.2 4.14 4.14 0 0 0-3.19 1.21 4.88 4.88 0 0 0-1.12 3.46v2.63h5.3v3.29h-5.3v21.57zM487.1 463.11a14.61 14.61 0 0 1 1.44-6.57 10.64 10.64 0 0 1 4-4.5 10.81 10.81 0 0 1 5.84-1.59 10.49 10.49 0 0 1 8.22 3.55q3.13 3.51 3.13 9.35v.29a14.79 14.79 0 0 1-1.39 6.52 10.58 10.58 0 0 1-4 4.49 11.06 11.06 0 0 1-5.94 1.61 10.47 10.47 0 0 1-8.19-3.52 13.44 13.44 0 0 1-3.14-9.3zm4.28.5a10.68 10.68 0 0 0 1.91 6.64 6.49 6.49 0 0 0 10.28 0c1.28-1.69 1.91-4.06 1.91-7.11a10.64 10.64 0 0 0-1.94-6.63 6.17 6.17 0 0 0-5.16-2.54 6.08 6.08 0 0 0-5.07 2.51c-1.31 1.64-1.93 4.02-1.93 7.13zM530.41 473.31c-1.66 1.94-4.08 2.92-7.29 2.92a7.72 7.72 0 0 1-6-2.31q-2.09-2.31-2.1-6.84v-16.17h4.25V467q0 5.65 4.59 5.65 4.88 0 6.48-3.63v-18.11h4.25v24.86h-4zM545 450.91l.13 3.12a9.08 9.08 0 0 1 7.45-3.58q7.88 0 7.95 8.89v16.43h-4.23v-16.45a5.79 5.79 0 0 0-1.23-4 5 5 0 0 0-3.76-1.28 6.09 6.09 0 0 0-3.63 1.1 7.53 7.53 0 0 0-2.43 2.89v17.72H541v-24.84zM565.92 463.13a14.61 14.61 0 0 1 2.71-9.2 9.23 9.23 0 0 1 14-.49v-13h4.25v35.29H583l-.21-2.67a8.66 8.66 0 0 1-7.1 3.13 8.5 8.5 0 0 1-7-3.54 14.77 14.77 0 0 1-2.72-9.24zm4.25.48a11 11 0 0 0 1.75 6.62 5.64 5.64 0 0 0 4.82 2.39 6.2 6.2 0 0 0 5.91-3.63v-11.42a6.26 6.26 0 0 0-5.86-3.51 5.66 5.66 0 0 0-4.87 2.41q-1.75 2.42-1.75 7.14zM516.45 293.78a53.74 53.74 0 0 0-32.21-9.25 45.17 45.17 0 0 0-24.88 6.47q-16 10.2-17.06 34.6h24.79a25.34 25.34 0 0 1 4.16-13.69q4.14-6.63 14.05-6.6c6.75 0 11.39 1.8 14.06 5.34a20.09 20.09 0 0 1 3.79 11.86A18 18 0 0 1 499 332.9a22.38 22.38 0 0 1-5.11 5s-13.44 8.66-19.34 15.57c-3.4 4-3.71 10-4 18.64 0 .62.22 1.91 2.36 1.91h19.28a2.13 2.13 0 0 0 2.33-1.93.49.49 0 0 1 0-.12 23.31 23.31 0 0 1 1-6.58 20.26 20.26 0 0 1 7.33-9l6.83-4.73a74.09 74.09 0 0 0 13.24-11.83 31.21 31.21 0 0 0 6.32-18.83c.02-11.93-4.11-21-12.79-27.22zm-32.61 95.11a15.29 15.29 0 0 0-1.84 30.53h1a14.72 14.72 0 0 0 16-13.34q.06-.69.06-1.38a14.88 14.88 0 0 0-13.94-15.8c-.45-.01-.86-.02-1.28-.01zM145.04 172.27l-8.71-4.15 9.1-3.18.99 2.83-2.22.78 2.12 1.01-1.28 2.71zM157.42 173.5l-1-2.84 11.52-4 1 2.83zm23-8.07l-1-2.83 11.52-4 1 2.83zm23-8.07l-1-2.83 11.52-4 1 2.83zm23.05-8.06l-1-2.83 11.53-4 1 2.84zm23-8.07l-1-2.83 11.52-4 1 2.83zm23-8.06l-1-2.83 11.52-4 1 2.83zm23-8.07l-1-2.83 11.52-4 1 2.83zm23.25-8.1l-1-2.83 11.53-4 1 2.83zm23-8.07l-1-2.83 11.52-4 1 2.83zm23-8.06l-1-2.84 11.52-4 1 2.83zm23-8.07l-1-2.83 11.52-4 1 2.83zM410.89 84.77l-.99-2.83 2.22-.77-2.13-1.02 1.29-2.71 8.71 4.15-9.1 3.18zM157.94 163.74l-1-2.84 11.52-4 1 2.83zm23.06-8.07l-1-2.83 11.53-4 1 2.83zm23-8.07l-1-2.83 11.52-4 1 2.83zm23-8.07l-1-2.83 11.52-4 1 2.83zm23-8.06l-1-2.83 11.52-4 1 2.83zm23.05-8.07l-1-2.83 11.53-4 1 2.84zm23-8.07l-1-2.83 11.52-4 1 2.83zm23-8.06l-1-2.84 11.52-4 1 2.83zm23-8.07l-1-2.83 11.52-4 1 2.83zm23.05-8.07l-1-2.83 11.53-4 1 2.83zm23-8.07l-1-2.83 11.52-4 1 2.83zM442.44 99.92l-.99-2.83 2.24-.78-2.13-1.03 1.29-2.7 8.68 4.17-9.09 3.17zM189.83 178.77l-1-2.83 11.51-4 1 2.83zm23-8.05l-1-2.84 11.51-4 1 2.83zm23-8.06l-1-2.83 11.5-4 1 2.83zm23-8.06l-1-2.83 11.51-4 1 2.83zm23-8l-1-2.84 11.5-4 1 2.83zm23-8.06l-1-2.83 11.51-4 1 2.83zm23-8.06l-1-2.83 11.51-4 1 2.83zm23-8.05l-1-2.83 11.51-4 1 2.83zm23-8.06l-1-2.83 11.51-4 1 2.83zm23-8.06l-1-2.83 11.51-4 1 2.84zm23-8.05l-1-2.83 11.51-4 1 2.83zM176.94 187.3l-8.71-4.15 9.1-3.18.99 2.83-2.22.78 2.13 1.01-1.29 2.71zM189.3 188.54l-1-2.83 11.51-4 1 2.83zm23-8l-1-2.84 11.51-4 1 2.83zm23-8.06l-1-2.83 11.5-4 1 2.83zm23-8.06l-1-2.83 11.5-4 1 2.84zm23-8.05l-1-2.83 11.51-4 1 2.83zm23-8.06l-1-2.83 11.5-4 1 2.83zm23-8l-1-2.84 11.5-4 1 2.83zm23-8.06l-1-2.83 11.51-4 1 2.83zm23-8.06l-1-2.83 11.51-4 1 2.84zm23-8l-1-2.83 11.5-4 1 2.83zm23-8.06l-1-2.83 11.51-4 1 2.83z"/></svg>