<svg id="レイヤー_2" data-name="レイヤー 2" xmlns="http://www.w3.org/2000/svg" viewBox="0 0 800 800"><defs><style>.cls-1{fill:#b9b9b9;}.cls-2{fill:#fff;opacity:0.3;}</style></defs><title>book-placeholder</title><path class="cls-1" d="M644.33,119.73A30,30,0,0,0,617,115.88L275.48,235.41c-43.06-2-72.39-13.84-92.61-27-6.08-4-7.4-6.28-7.4-6.28A15.35,15.35,0,0,1,181.22,177L486.88,70a14.94,14.94,0,0,1,13.64,1.91c.36.26.66.61,1,.88l22.37-8.09a29.82,29.82,0,0,0-39.33-23.05L163.12,154.18A30.06,30.06,0,0,0,143,182.52V685.8s21.18,68.9,132.47,74.2L616.76,640.56A60.11,60.11,0,0,0,657,583.85V144.23A30,30,0,0,0,644.33,119.73Z"/><polygon class="cls-1" points="213.7 189.43 227.25 195.88 536.08 87.78 522.5 81.32 213.7 189.43"/><polygon class="cls-1" points="264.54 213.46 572.97 105.49 559.48 99.01 250.99 207 264.54 213.46"/><path id="Fill_21" data-name="Fill 21" class="cls-2" d="M453.05,412.78,553.4,312.07,445.69,280.35l-60.17,59V476.61l52.81,13.57v36l-81.77-20.49V367.76L333.85,390V532.53L445.69,560l7.36-7.56Z"/><path id="Fill_23" data-name="Fill 23" class="cls-2" d="M482.05,528.67h0V423.44l71.35-73.69V453.66Zm56.21-134.14L497.49,436.7v35.08l40.77-42.4Z"/></svg>