<svg id="レイヤー_2" data-name="レイヤー 2" xmlns="http://www.w3.org/2000/svg" viewBox="0 0 800 800"><defs><style>.cls-1{fill:#b9b9b9}</style></defs><path class="cls-1" d="M335.82 481.85c-.73-1.23-1.46-2.48-2.17-3.74h-4.23v-6h7.77l.86 1.55c.94 1.72 1.92 3.44 2.92 5.12zM316.5 478.11h-12.92v-6h12.92zm-25.83 0h-12.92v-6h12.92zM264.83 478.11h-9v-9h6v3h3v6zM261.83 458.61h-6v-9h9v6h-3v3zM308.23 455.61h-10.85v-6h10.85zm-21.7 0h-10.85v-6h10.85zM329.41 455.61h-10.33v-6h1.73c-.2-.57-.39-1.13-.58-1.7l5.69-1.91c.62 1.86 1.28 3.73 2 5.56zM318 440.73c-.69-2.4-1.34-4.85-1.93-7.28l5.83-1.41c.57 2.35 1.2 4.71 1.86 7zM314.45 426.1c-.23-1.15-.45-2.32-.65-3.48h-3.46v-6h8.55l.41 2.52c.31 1.94.66 3.89 1 5.8zM280 416.62h15.17v6H280zM264.83 422.62h-9v-9h6v3h3v6zM261.83 403.12h-6v-9h9v6h-3v3zM279.3 394.12h14.47v6H279.3zM317.33 400.12h-9.08v-6h2.94v-3l6 .06c0 1.94 0 3.92.06 5.89zM317.4 384.23l-6-.3c.12-2.38.29-4.78.51-7.14l6 .55c-.23 2.27-.4 4.59-.51 6.89zM318.66 370.46l-6-.79c.11-.85.23-1.69.36-2.54h-2.49v-6h9.55l-.59 3.5c-.28 1.92-.57 3.88-.83 5.83zM280.08 361.13h15.25v6h-15.25zM264.83 367.13h-9v-9h6v3h3v6zM261.83 347.63h-6v-9h9v6h-3v3zM305.72 344.63H295.5v-6h10.22zm-20.44 0h-10.22v-6h10.22zM324.16 344.63H316v-6h3.8c.4-1.23.81-2.47 1.24-3.68l5.66 2c-.64 1.85-1.26 3.73-1.84 5.6zM329.4 329.57l-5.57-2.23c1-2.5 2.08-5 3.2-7.47l5.46 2.49c-1.08 2.38-2.12 4.8-3.09 7.21zM335.91 315.3l-5.34-2.74.47-.91h-1v-6h11.12l-2.5 4.46c-.91 1.68-1.85 3.43-2.75 5.19zM317 311.65h-13v-6h13zm-26.1 0h-13.02v-6h13.05zM264.83 311.64h-9v-9h6v3h3v6zM261.83 292.15h-6v-9h9v6h-3v3zM333.66 289.15h-11.47v-6h11.47zm-22.94 0h-11.47v-6h11.47zm-23 0H276.3v-6h11.47zM352.58 289.15h-7.45v-6h4.55q1.45-1.81 3-3.59l4.57 3.89c-1.27 1.5-2.53 3-3.74 4.56zM364.47 275.45l-4.31-4.17c2.57-2.67 5.27-5.29 8-7.79l4 4.44c-2.59 2.42-5.16 4.95-7.69 7.52zm16-14.52l-3.74-4.69c2.89-2.31 5.9-4.57 8.95-6.7l3.44 4.92c-2.98 2.06-5.89 4.23-8.69 6.47zm17.69-12.38l-3.16-5.12c3.17-1.93 6.44-3.79 9.73-5.51l2.78 5.31c-3.17 1.67-6.33 3.46-9.39 5.32zM417.24 238.52L414.8 233c1.24-.55 2.49-1.09 3.74-1.62v-4h6v8l-1.87.76c-1.81.8-3.67 1.58-5.43 2.38zM424.54 214.38h-6v-13.06h6zm0-26.12h-6v-13h6zm0-26.11h-6V149.1h6zm0-26.11h-6V123h6zM424.54 109.93h-6v-3h-3v-6h9v9zM539.78 581.59h-11.91v-6h11.91zm-23.82 0H504v-6h12zm-23.83 0h-11.91v-6h11.91zm-23.82 0H456.4v-6h11.91zm-23.82 0h-11.91v-6h11.91zm-23.82 0h-11.91v-6h11.91zm-23.82 0h-11.91v-6h11.91zm-23.82 0h-11.91v-6H373zm-23.82 0H337.3v-6h11.91zm-23.82 0h-11.91v-6h11.91zm-23.83 0h-11.91v-6h11.91zm-23.82 0h-11.91v-6h11.91zm-23.82 0H242v-6h11.91zm-23.82 0h-11.91v-6h11.91zm-23.82 0h-11.91v-6h11.91zm346.61-.89l-2.59-5.41a3 3 0 0 0 1.72-2.71v-5.15h6v5.16a9.06 9.06 0 0 1-5.13 8.11zm-361.55-10.58h-6v-11.91h6zm0-23.82h-6v-11.91h6zm0-23.82h-6v-11.91h6zm0-23.82h-6v-11.91h6zm0-23.82h-6v-11.91h6zm0-23.82h-6v-11.91h6zm0-23.82h-6v-11.91h6zm0-23.82h-6v-11.92h6zm0-23.83h-6v-11.91h6zm0-23.82h-6v-11.91h6zm0-23.82h-6V320h6zm0-23.82h-6v-11.91h6zm0-23.82h-6v-11.91h6zm0-23.82h-6v-11.91h6zm0-23.82h-6v-11.91h6zm0-23.82h-6v-11.92h6zm0-23.83h-6v-11.91h6zm0-23.82h-6v-11.91h6zm0-23.82h-6v-11.91h6zm0-23.82h-6v-7.59a9 9 0 0 1 2.24-5.93l4.51 4a3 3 0 0 0-.75 2zm212.29-10.59h-11.91v-6h11.91zm-23.82 0H367.9v-6h11.91zm-23.82 0h-11.91v-6H356zm-23.82 0h-11.91v-6h11.91zm-23.82 0h-11.91v-6h11.91zm-23.82 0h-11.92v-6h11.92zm-23.83 0h-11.91v-6h11.91zm-23.82 0H225v-6h11.91zm-23.82 0h-11.91v-6h11.91zM558 555.47h-6V554l-1.41.57-2.21-5.57c1.8-.72 3.63-1.49 5.43-2.29l4.21-1.86zM485.85 567.11c-1.39 0-2.77 0-4.16-.05l.14-6c3.78.09 7.59.05 11.35-.11l.26 6c-2.51.1-5.06.16-7.59.16zm-15.85-.73c-3.89-.36-7.81-.85-11.67-1.47l1-5.93c3.72.6 7.5 1.08 11.25 1.42zm35.2-.35l-.67-6c3.74-.42 7.52-1 11.22-1.65l1.07 5.91c-3.82.71-7.82 1.3-11.66 1.71zm-58.4-3.37c-2.05-.47-4.12-1-6.16-1.54-1.74-.46-3.48-1-5.19-1.47l1.72-5.75c1.66.5 3.34 1 5 1.43 2 .53 4 1 6 1.48zm81.51-.82L526.8 556c3.65-.92 7.32-2 10.91-3.14l1.85 5.7c-3.72 1.23-7.56 2.33-11.29 3.28zm-104-6c-3.66-1.37-7.32-2.89-10.87-4.5l2.48-5.46c3.43 1.55 7 3 10.49 4.34zm-21.4-9.72c-3.43-1.85-6.85-3.84-10.16-5.92l3.2-5.08c3.19 2 6.49 3.93 9.8 5.71zM383 533.65c-3.15-2.3-6.26-4.73-9.26-7.24l3.85-4.6c2.9 2.42 5.9 4.77 8.94 7zm-18-15.1c-2.81-2.7-5.57-5.53-8.2-8.42l4.44-4c2.54 2.79 5.2 5.53 7.92 8.14zm-15.81-17.37c-2.42-3.05-4.78-6.23-7-9.44l4.93-3.41c2.15 3.1 4.42 6.17 6.76 9.12zM261.83 203.66h-6v-9h9v6h-3v3zM346.45 200.66h-13.6v-6h13.6zm-27.2 0h-13.61v-6h13.61zm-27.21 0h-13.6v-6H292zM369.06 203.66h-6v-3h-3v-6h9v9zM369.06 228.41h-9v-6h3v-3h6v9zM346.45 228.41h-13.6v-6h13.6zm-27.2 0h-13.61v-6h13.61zm-27.21 0h-13.6v-6H292zM264.83 228.41h-9v-9h6v3h3v6zM551.75 234.13l-1-1c.25.28.48.57.71.86z"/><path class="cls-1" d="M560.86 241.14l-10.52-4.35c-1.81-.74-3.66-1.47-5.49-2.15l.86-2.3-.51-.51 1.11-1.12.69-1.71.77.29 1.72-1.73 3.57 3.58c.29.32.56.67.83 1zM537.1 223.72l-8.11-8.1 4.25-4.24 8.1 8.1zm-16.21-16.2l-8.1-8.1 4.24-4.24 8.1 8.1zm-16.2-16.2l-8.11-8.11 4.25-4.24 8.1 8.1zm-16.21-16.21l-8.1-8.1 4.24-4.24 8.1 8.1zm-16.2-16.2l-8.11-8.11 4.25-4.24 8.1 8.1zm-16.21-16.21l-8.1-8.1 4.24-4.24 8.1 8.1zm-16.2-16.2l-8.1-8.1 4.24-4.25 8.1 8.1zM423.66 110.29l-.36-.36h-4.76V96.69l9.36 9.36-3.36 3.36v.52h-.51l-.37.36zM424.54 214.38h-6v-13.06h6zm0-26.12h-6v-13h6zm0-26.11h-6V149.1h6zm0-26.11h-6V123h6zM418.54 237.88v-10.45h6V229l1.57-.58 2.06 5.64c-1.84.67-3.69 1.38-5.5 2.11zM534.57 231.17c-1.7-.52-3.44-1-5.17-1.47s-3.53-.92-5.3-1.33l1.37-5.85c1.83.43 3.68.9 5.48 1.38s3.59 1 5.35 1.52zm-96.11-.46l-1.7-5.75c3.58-1.05 7.23-2 10.86-2.81l1.32 5.85c-3.51.79-7.03 1.7-10.48 2.71zm75-4.48c-3.55-.59-7.16-1.08-10.74-1.44l.62-6c3.69.38 7.43.88 11.11 1.5zm-53.89-.23l-.93-5.93c3.68-.58 7.42-1 11.13-1.39l.55 6c-3.58.32-7.19.72-10.75 1.32zm32.43-2c-3.6-.13-7.23-.15-10.83-.05l-.16-6c3.72-.1 7.49-.08 11.22.05z"/><path d="M553.53 237.4H555l-3.27-3.27-.27-.11a16.48 16.48 0 0 1 2.07 3.38z" fill="#e70037"/><path class="cls-1" d="M526.28 241.34A156.5 156.5 0 1 1 334.61 352a156.52 156.52 0 0 1 191.67-110.66zm9.18-34.24a192 192 0 1 0 25.95 361.37l12.1 21c-10.44 11.17-12.51 28.53-4.42 42.45l63.39 110.65a35.92 35.92 0 0 0 49 13.13l21-12.1a35.92 35.92 0 0 0 13.13-49l-64.16-110.23a35.57 35.57 0 0 0-39.16-16.82l-12.11-21a191.89 191.89 0 0 0-64.72-339.45z" id="surface1"/><path class="cls-1" d="M410.88 475.77h-4.43L389.61 450v25.78h-4.44v-33.46h4.44l16.88 25.89v-25.89h4.39zM416.92 463.11a14.61 14.61 0 0 1 1.44-6.57 10.64 10.64 0 0 1 4-4.5 10.81 10.81 0 0 1 5.84-1.59 10.49 10.49 0 0 1 8.22 3.52 13.57 13.57 0 0 1 3.13 9.35v.29a14.79 14.79 0 0 1-1.39 6.52 10.58 10.58 0 0 1-4 4.49 11.06 11.06 0 0 1-5.94 1.61 10.47 10.47 0 0 1-8.19-3.52 13.44 13.44 0 0 1-3.14-9.3zm4.28.5a10.62 10.62 0 0 0 1.91 6.64 6.49 6.49 0 0 0 10.28 0c1.28-1.69 1.91-4.06 1.91-7.11a10.64 10.64 0 0 0-1.94-6.63 6.45 6.45 0 0 0-10.24 0c-1.28 1.61-1.92 3.99-1.92 7.1zM450.65 444.89v6h4.64v3.29h-4.64v15.43a3.4 3.4 0 0 0 .62 2.24 2.59 2.59 0 0 0 2.11.75 9.91 9.91 0 0 0 2-.28v3.43a12.56 12.56 0 0 1-3.26.46 5.31 5.31 0 0 1-4.3-1.73 7.43 7.43 0 0 1-1.44-4.89V454.2h-4.53v-3.29h4.53v-6zM474 475.77V454.2h-3.93v-3.29H474v-2.55a8.5 8.5 0 0 1 2.13-6.18 8.1 8.1 0 0 1 6-2.18 11.16 11.16 0 0 1 2.92.39l-.23 3.42a12 12 0 0 0-2.3-.2 4.14 4.14 0 0 0-3.19 1.21 4.88 4.88 0 0 0-1.12 3.46v2.63h5.3v3.29h-5.3v21.57zM487.1 463.11a14.61 14.61 0 0 1 1.44-6.57 10.64 10.64 0 0 1 4-4.5 10.81 10.81 0 0 1 5.84-1.59 10.49 10.49 0 0 1 8.22 3.55q3.13 3.51 3.13 9.35v.29a14.79 14.79 0 0 1-1.39 6.52 10.58 10.58 0 0 1-4 4.49 11.06 11.06 0 0 1-5.94 1.61 10.47 10.47 0 0 1-8.19-3.52 13.44 13.44 0 0 1-3.14-9.3zm4.28.5a10.68 10.68 0 0 0 1.91 6.64 6.49 6.49 0 0 0 10.28 0c1.28-1.69 1.91-4.06 1.91-7.11a10.64 10.64 0 0 0-1.94-6.63 6.17 6.17 0 0 0-5.16-2.54 6.08 6.08 0 0 0-5.07 2.51c-1.31 1.64-1.93 4.02-1.93 7.13zM530.41 473.31c-1.66 1.94-4.08 2.92-7.29 2.92a7.72 7.72 0 0 1-6-2.31q-2.09-2.31-2.1-6.84v-16.17h4.25V467q0 5.65 4.59 5.65 4.88 0 6.48-3.63v-18.11h4.25v24.86h-4zM545 450.91l.13 3.12a9.08 9.08 0 0 1 7.45-3.58q7.88 0 7.95 8.89v16.43h-4.23v-16.45a5.79 5.79 0 0 0-1.23-4 5 5 0 0 0-3.76-1.28 6.09 6.09 0 0 0-3.63 1.1 7.53 7.53 0 0 0-2.43 2.89v17.72H541v-24.84zM565.92 463.13a14.61 14.61 0 0 1 2.71-9.2 9.23 9.23 0 0 1 14-.49v-13h4.25v35.29H583l-.21-2.67a8.66 8.66 0 0 1-7.1 3.13 8.5 8.5 0 0 1-7-3.54 14.77 14.77 0 0 1-2.72-9.24zm4.25.48a11 11 0 0 0 1.75 6.62 5.64 5.64 0 0 0 4.82 2.39 6.2 6.2 0 0 0 5.91-3.63v-11.42a6.26 6.26 0 0 0-5.86-3.51 5.66 5.66 0 0 0-4.87 2.41q-1.75 2.42-1.75 7.14zM516.45 293.78a53.74 53.74 0 0 0-32.21-9.25 45.17 45.17 0 0 0-24.88 6.47q-16 10.2-17.06 34.6h24.79a25.34 25.34 0 0 1 4.16-13.69q4.14-6.63 14.05-6.6c6.75 0 11.39 1.8 14.06 5.34a20.09 20.09 0 0 1 3.79 11.86A18 18 0 0 1 499 332.9a22.38 22.38 0 0 1-5.11 5s-13.44 8.66-19.34 15.57c-3.4 4-3.71 10-4 18.64 0 .62.22 1.91 2.36 1.91h19.28a2.13 2.13 0 0 0 2.33-1.93.49.49 0 0 1 0-.12 23.31 23.31 0 0 1 1-6.58 20.26 20.26 0 0 1 7.33-9l6.83-4.73a74.09 74.09 0 0 0 13.24-11.83 31.21 31.21 0 0 0 6.32-18.83c.02-11.93-4.11-21-12.79-27.22zm-32.61 95.11a15.29 15.29 0 0 0-1.84 30.53h1a14.72 14.72 0 0 0 16-13.34q.06-.69.06-1.38a14.88 14.88 0 0 0-13.94-15.8c-.45-.01-.86-.02-1.28-.01z"/></svg>