<svg id="logo" width="106" height="100" xmlns="http://www.w3.org/2000/svg"><style>.st0{fill:#565964}</style><path class="st0" d="M9.6 93.4c0 .3-.1.5-.3.7-.2.2-.4.3-.7.3H1.1c-.3 0-.5-.1-.7-.3-.2-.2-.3-.4-.3-.7V80.2c0-.3.1-.5.3-.7.2-.2.4-.3.7-.3.3 0 .5.1.7.3.2.2.3.4.3.7v11.2c0 .3.1.5.3.7.2.2.4.3.7.3h5.6c.3 0 .5.1.7.3.1.2.2.4.2.7zM17.5 92.3c.3-.1.5-.3.8-.6.1-.1.3-.2.5-.3.2 0 .4 0 .6.1.3.2.5.4.5.7.1.3 0 .6-.3.8l-.1.1s-.1.1-.2.1l-.1.1s-.1.1-.2.1-.1.1-.2.1c0 0-.1.1-.2.1l-.1.1s-.1.1-.2.1c-.8.5-1.7.7-2.7.7-.8 0-1.5-.1-2.1-.4-.5-.2-1-.6-1.5-1.1-.5-.5-.9-1.1-1.2-1.7-.3-.7-.4-1.4-.4-2.1 0-.8.1-1.5.4-2.1.3-.7.6-1.2 1.1-1.7.5-.5 1-.9 1.7-1.2.7-.3 1.4-.4 2.1-.4.7 0 1.4.1 2.1.4.6.3 1.2.7 1.7 1.2.1.1.2.2.3.4.1.1.2.3.3.4.1.1.2.3.3.4.1.2.2.3.2.5.1.2.1.5.1.8 0 .3 0 .6-.1.8-.1.2-.2.5-.4.6-.2.2-.4.3-.6.5l-.2.1c-.3.1-.6.2-.9.2h-5.1c-.3 0-.5.1-.6.4-.1.2-.1.5 0 .7.2.3.4.6.8.9.3.3.7.4 1 .6.4.1.8.2 1.2.2.6-.2 1.1-.3 1.7-.6zm-4.6-5l-.1.1c-.1.2-.1.4 0 .6.1.2.4.3.6.3H18c.3 0 .5-.1.6-.3.1-.2.1-.4 0-.6 0-.1-.1-.1-.1-.1-.1-.1-.1-.2-.2-.3l-.3-.3c-.1-.1-.2-.2-.4-.3-.3-.2-.6-.4-.9-.5-.3-.1-.7-.2-1-.2h-.1c-.7 0-1.3.2-1.9.6-.2.1-.3.2-.4.3l-.3.3c0 .2-.1.3-.1.4zM32.5 84.9v10.3c-.1.7-.2 1.3-.4 1.9-.2.6-.5 1.1-.9 1.5-.4.4-.9.8-1.5 1-.6.2-1.4.4-2.2.4-.6 0-1.2-.1-1.6-.3-.2-.1-.5-.2-.7-.3-.2-.1-.4-.3-.6-.4-.3-.2-.6-.5-.8-.8l-.1-.1-.1-.1c-.1-.2-.2-.3-.2-.5s0-.3.1-.5.2-.3.3-.4c.1-.1.3-.1.5-.1.3 0 .6.1.8.4.2.3.4.5.8.7.4.3 1 .4 1.6.4.6 0 1.2-.1 1.6-.3.4-.2.7-.4.9-.7.2-.3.4-.7.4-1.1 0-.2.1-.4.1-.6v-2c-.4.4-.8.7-1.3.9-.5.2-1.1.3-1.8.3s-1.4-.1-2.1-.4c-.7-.3-1.2-.7-1.7-1.1-.2-.2-.5-.5-.6-.8-.2-.3-.4-.6-.5-.9-.3-.7-.4-1.4-.4-2.1 0-.8.1-1.5.4-2.1.2-.3.3-.6.5-.9.2-.3.4-.5.6-.8.5-.5 1.1-.9 1.7-1.1.7-.3 1.4-.4 2.1-.4.7 0 1.2.1 1.8.3h.1c.3.1.6.2.9.2.3 0 .6-.1.9-.2.1 0 .1-.1.2-.1h.3c.3 0 .5.1.7.3.1.1.2.3.2.5zm-5 7.8c.6 0 1.2-.2 1.8-.5.6-.4 1-.8 1.3-1.3.3-.5.4-1.1.4-1.7 0-.6-.1-1.1-.4-1.7-.3-.5-.7-1-1.3-1.3-.5-.3-1.1-.5-1.8-.5-.5 0-1 .1-1.4.3-.4.2-.8.5-1.1.8-.3.3-.6.7-.7 1.1-.2.4-.3.9-.3 1.4 0 .5.1 1 .3 1.4l.3.6c.1.2.3.4.4.5.3.3.7.6 1.1.8.4 0 .8.1 1.4.1zM44.7 92.7c0 .5-.2.9-.5 1.2-.3.3-.7.5-1.2.5-.2 0-.3 0-.5-.1-.1 0-.3-.1-.5-.1s-.4 0-.6.1c-.5.2-1.1.3-1.7.3-.8 0-1.5-.1-2.1-.4-.6-.3-1.2-.7-1.7-1.2s-.9-1.1-1.1-1.7c-.3-.7-.4-1.4-.4-2.1 0-.7.1-1.4.4-2.1.3-.6.7-1.2 1.1-1.7.5-.5 1.1-.9 1.7-1.2.7-.3 1.4-.4 2.1-.4.7 0 1.4.1 2 .4.6.3 1.2.6 1.6 1.1.5.5.8 1 1.1 1.6.3.6.4 1.3.4 2v3.8zm-5.1 0c.7 0 1.3-.2 1.8-.5s1-.8 1.3-1.3c.3-.5.4-1.1.4-1.7 0-.6-.1-1.2-.4-1.7-.3-.6-.7-1-1.3-1.3-.5-.3-1.1-.5-1.8-.5-.5 0-.9.1-1.4.3l-.6.3c-.2.1-.4.3-.5.4-.3.3-.6.7-.8 1.1-.2.4-.3.9-.3 1.4 0 .5.1 1 .3 1.4.2.4.4.8.8 1.1.3.3.7.6 1.1.8.5.1.9.2 1.4.2zM49.4 90.5c.1.4.3.7.5 1 .2.3.6.5.9.7.2.1.4.2.7.2l.6.3c.2.2.2.4.2.6 0 .3-.1.6-.4.8-.2.2-.5.3-.8.2-.2 0-.4-.1-.5-.2-.2-.1-.3-.1-.5-.2-.3-.1-.6-.3-.9-.5-.3-.2-.5-.4-.7-.6-.4-.5-.7-1-.9-1.7-.1-.3-.2-.6-.2-1 0-.3-.1-.7-.1-1.1v-9c0-.3.1-.5.3-.7.2-.2.4-.3.7-.3.3 0 .5.1.7.3.2.2.3.4.3.7v9.6c0 .5 0 .7.1.9zM57 82.4v1.8c0 .3.1.5.3.7.2.2.5.3.8.3h3.3c.3 0 .5.1.7.3.2.2.3.5.3.7 0 .3-.1.5-.3.7-.2.2-.5.3-.7.3h-3.3c-.3 0-.6.1-.8.3-.2.2-.3.5-.3.7v4.9c0 .3-.1.5-.3.7-.2.2-.5.3-.7.3-.3 0-.5-.1-.7-.3-.2-.2-.3-.5-.3-.7v-13c0-.3.1-.5.3-.7.2-.2.5-.3.7-.3h5.4c.3 0 .5.1.7.3.2.2.3.5.3.7 0 .3-.1.5-.3.7-.2.2-.5.3-.7.3h-3.3c-.3 0-.6.1-.8.3-.2.5-.3.7-.3 1zM69.3 83.8c.7 0 1.4.1 2.1.4.7.3 1.2.7 1.7 1.2s.9 1 1.2 1.7c.3.7.4 1.4.4 2.1 0 .7-.1 1.4-.4 2.1-.3.6-.7 1.2-1.2 1.7s-1 .9-1.7 1.2c-.6.3-1.3.4-2.1.4s-1.5-.1-2.1-.4c-.6-.3-1.2-.7-1.7-1.2-.2-.2-.5-.5-.6-.8-.2-.3-.4-.6-.5-.9-.3-.7-.4-1.4-.4-2.1 0-.7.1-1.4.4-2.1.3-.6.7-1.2 1.1-1.7.5-.5 1.1-.9 1.7-1.2.7-.3 1.4-.4 2.1-.4zm0 8.9c.5 0 .9-.1 1.4-.3.4-.2.8-.4 1.1-.8.2-.2.3-.3.4-.5l.3-.6c.1-.2.2-.4.2-.6 0-.2.1-.5.1-.7 0-.5-.1-.9-.3-1.4l-.3-.6c-.1-.2-.3-.4-.4-.5-.2-.2-.3-.3-.5-.4l-.6-.3c-.4-.2-.9-.3-1.4-.3-.2 0-.5 0-.7.1-.2 0-.4.1-.6.2l-.6.3c-.2.1-.4.3-.5.4-.3.3-.6.7-.8 1.1-.2.4-.3.9-.3 1.4 0 .5.1 1 .3 1.4.2.4.4.8.8 1.1.3.3.7.6 1.1.8.3.1.8.2 1.3.2zM83.6 84.1c.2.2.3.4.3.7v.1c0 .3-.1.5-.3.7-.2.2-.4.3-.7.3-.4 0-.9.1-1.3.2-.5.2-.9.4-1.2.7-.4.3-.7.6-.9 1-.2.4-.4.8-.4 1.2v4.5c0 .3-.1.5-.3.7-.2.2-.4.3-.7.3-.3 0-.5-.1-.7-.3-.2-.2-.3-.4-.3-.7V85c0-.3.1-.5.3-.7.2-.2.4-.3.7-.3.3 0 .5.1.7.3l.1.1.1.1c.1 0 .1.1.2.2s.1.1.2.1h.1c.1 0 .2 0 .3-.1.1 0 .2-.1.3-.2.1-.1.3-.1.4-.2.1-.1.3-.1.4-.2.1 0 .2-.1.3-.1.3-.1.6-.1.9-.2.3 0 .6-.1.9-.1.2.1.4.2.6.4zM93.5 91.6c.3.1.5.4.5.7 0 .3 0 .6-.3.8-.2.2-.3.3-.5.4-.2.1-.4.3-.6.4-.8.5-1.7.7-2.7.7-.8 0-1.5-.1-2.1-.4-.7-.3-1.2-.7-1.7-1.2s-.9-1-1.2-1.7c-.3-.6-.4-1.3-.4-2.1s.1-1.5.4-2.1c.3-.7.7-1.2 1.2-1.7s1-.9 1.7-1.2c.7-.3 1.4-.4 2.1-.4 1 0 1.9.2 2.7.7.4.2.8.5 1.1.8.2.2.3.5.3.8 0 .3-.2.6-.5.7-.2.1-.4.1-.6.1-.2 0-.4-.1-.5-.3-.2-.2-.5-.4-.8-.6-.5-.3-1-.4-1.7-.4-.5 0-.9.1-1.3.3-.4.2-.8.4-1.1.8-.3.3-.6.7-.8 1.1-.2.4-.3.9-.3 1.4 0 .5.1.9.3 1.3.2.4.4.8.8 1.1.3.3.7.6 1.1.8.4.2.8.3 1.3.3.6 0 1.2-.1 1.7-.4.3-.1.5-.3.8-.6.2-.1.3-.2.5-.3.2 0 .4.1.6.2zM102.6 92.3c.3-.1.5-.3.8-.6.1-.1.3-.2.5-.3.2 0 .4 0 .6.1.3.2.5.4.5.7.1.3 0 .6-.3.8l-.1.1s-.1.1-.2.1l-.1.1s-.1.1-.2.1-.1.1-.2.1c0 0-.1.1-.2.1l-.1.1s-.1.1-.2.1c-.8.5-1.7.7-2.7.7-.8 0-1.5-.1-2.1-.4-.7-.3-1.2-.7-1.7-1.2s-.9-1.1-1.2-1.7c-.3-.7-.4-1.4-.4-2.1 0-.8.1-1.5.4-2.1.3-.7.6-1.2 1.1-1.7.5-.5 1-.9 1.7-1.2.7-.3 1.4-.4 2.1-.4.7 0 1.4.1 2.1.4.6.3 1.2.7 1.7 1.2.1.1.2.2.3.4.1.1.2.3.3.4.1.1.2.3.3.4.1.2.2.3.2.5.1.2.2.5.2.8 0 .3-.1.6-.2.8-.1.2-.2.5-.4.6-.2.2-.4.3-.6.5l-.1.1c-.3.1-.6.2-.9.2h-5.1c-.3 0-.5.1-.6.4-.1.2-.1.5 0 .7.2.3.4.6.8.9.3.3.7.4 1 .6.4.1.8.2 1.2.2.7-.1 1.3-.2 1.8-.5zm-4.6-5l-.1.1c-.1.2-.1.4 0 .6.1.2.4.3.6.3h4.5c.3 0 .5-.1.6-.3.1-.2.1-.4 0-.6 0-.1-.1-.1-.1-.1-.1-.1-.1-.2-.2-.3l-.3-.3c-.1-.1-.2-.2-.4-.3-.3-.2-.6-.4-.9-.5-.3-.1-.7-.2-1-.2h-.1c-.7 0-1.3.2-1.9.6-.2.1-.3.2-.4.3l-.3.3c.1.2 0 .3 0 .4z"/><g><path class="st0" d="M55 33.8l28.3-16.3L53 0 36.5 9.5v34l14.4 8.3v9L28.7 48V14l-6 3.5v35L53 69.9l2-1.1z"/><path class="st0" d="M62.8 38.3v26l20.5-11.8v-26L62.8 38.3zm15.5 7.1L66.8 52v-8.6l11.5-6.6v8.6z"/></g></svg>