<svg id="レイヤー_2" data-name="レイヤー 2" xmlns="http://www.w3.org/2000/svg" viewBox="0 0 800 800"><defs><style>.cls-1{fill:#939393;}.cls-2{fill:#f7f7f7;}.cls-3{fill:#606060;}.cls-4{fill:#fff;}.cls-5{fill:#b9b9b9;}</style></defs><title>アートボード 3</title><path class="cls-1" d="M279.21,31.52a7.92,7.92,0,0,0-10.27,4.39L42.56,601.22A7.93,7.93,0,0,0,47,611.49L480.33,785a7.92,7.92,0,0,0,10.27-4.39L651.67,378.41a22,22,0,0,0-.17-14.58L559.93,150l-3.11-7.26Z"/><polygon class="cls-2" points="654.6 371.08 491.51 305.78 556.82 142.69 654.6 371.08"/><polygon class="cls-3" points="491.51 305.78 654.6 371.08 589.29 534.17 491.51 305.78"/><rect class="cls-4" x="300.29" y="202.52" width="141.13" height="36.52" transform="translate(108.66 -122.05) rotate(21.82)"/><rect class="cls-4" x="252.7" y="339.87" width="297.07" height="29.61" transform="translate(160.61 -123.74) rotate(21.82)"/><rect class="cls-4" x="225.55" y="407.67" width="297.07" height="29.61" transform="translate(183.87 -108.79) rotate(21.82)"/><rect class="cls-4" x="198.39" y="475.47" width="297.07" height="29.61" transform="translate(207.13 -93.84) rotate(21.82)"/><rect class="cls-4" x="171.24" y="543.27" width="297.07" height="29.61" transform="translate(230.38 -78.88) rotate(21.82)"/><path class="cls-5" d="M182.76,109.27a7.37,7.37,0,0,0-7.35,7.35V683.38a7.37,7.37,0,0,0,7.35,7.35H617.24a7.37,7.37,0,0,0,7.35-7.35V280.13a20.46,20.46,0,0,0-5.2-12.55L466.28,114.47l-5.2-5.2Z"/><polygon class="cls-2" points="624.59 272.78 461.08 272.78 461.08 109.27 624.59 272.78"/><polygon class="cls-1" points="461.08 272.78 624.59 272.78 624.59 436.28 461.08 272.78"/><rect class="cls-4" x="261.76" y="224.09" width="131.35" height="33.99"/><rect class="cls-4" x="261.76" y="332.49" width="276.49" height="27.56"/><rect class="cls-4" x="261.76" y="400.46" width="276.49" height="27.56"/><rect class="cls-4" x="261.76" y="468.43" width="276.49" height="27.56"/><rect class="cls-4" x="261.76" y="536.41" width="276.49" height="27.56"/></svg>