<svg id="レイヤー_2" data-name="レイヤー 2" xmlns="http://www.w3.org/2000/svg" viewBox="0 0 800 800"><defs><style>.cls-1{fill:none;}.cls-2{fill:#4c99b2;}.cls-3{fill:#dcf2f9;}.cls-4{fill:#117394;}.cls-5{fill:#fff;}.cls-6{fill:#b9b9b9;}</style></defs><title>アートボード 5</title><rect class="cls-1" width="800" height="800"/><path class="cls-2" d="M131,40a9.12,9.12,0,0,0-9.1,9.1V750.9A9.12,9.12,0,0,0,131,760H669a9.12,9.12,0,0,0,9.1-9.1V251.56A25.31,25.31,0,0,0,671.67,236L482.07,46.43,475.64,40Z"/><polygon class="cls-3" points="678.1 242.46 475.64 242.46 475.64 40 678.1 242.46"/><polygon class="cls-4" points="475.64 242.46 678.1 242.46 678.1 444.93 475.64 242.46"/><rect class="cls-5" x="228.82" y="182.18" width="162.65" height="42.09"/><rect class="cls-5" x="228.82" y="316.4" width="342.37" height="34.12"/><rect class="cls-5" x="228.82" y="400.57" width="342.37" height="34.12"/><rect class="cls-5" x="228.82" y="484.74" width="342.37" height="34.12"/><rect class="cls-5" x="228.82" y="568.91" width="342.37" height="34.12"/><g id="surface1"><path class="cls-6" d="M578.28,201.34A156.5,156.5,0,1,1,386.61,312,156.52,156.52,0,0,1,578.28,201.34Zm9.18-34.24a192,192,0,1,0,25.95,361.37l12.1,21C615.07,560.64,613,578,621.09,591.92l63.39,110.65a35.92,35.92,0,0,0,49,13.13l21-12.1a35.92,35.92,0,0,0,13.13-49L703.45,544.37a35.57,35.57,0,0,0-39.16-16.82l-12.11-21A191.89,191.89,0,0,0,587.46,167.1Z"/></g><circle class="cls-5" cx="537.77" cy="352.51" r="156.5"/><path class="cls-4" d="M507.71,268.37a33.74,33.74,0,1,0,0,24.09H642.5V268.37Zm-31.48,31.32a19.28,19.28,0,1,1,19.28-19.27A19.3,19.3,0,0,1,476.23,299.69Z"/><path class="cls-4" d="M507.71,410.54a33.74,33.74,0,1,0,0,24.09H642.5V410.54Zm-31.48,31.32a19.28,19.28,0,1,1,19.28-19.28A19.3,19.3,0,0,1,476.23,441.86Z"/><path class="cls-4" d="M572.62,316.56a33.76,33.76,0,0,0-31.47,21.69H444.91v24.09h96.24a33.72,33.72,0,1,0,31.47-45.78Zm0,53A19.28,19.28,0,1,1,591.9,350.3,19.3,19.3,0,0,1,572.62,369.57Z"/></svg>