<svg id="レイヤー_2" data-name="レイヤー 2" xmlns="http://www.w3.org/2000/svg" viewBox="0 0 800 800"><defs><style>.cls-1{fill:#7e3c9c;}.cls-2{fill:#e6e6e6;}.cls-3{fill:#a14fb8;}.cls-4{fill:#fff;opacity:0.3;}</style></defs><title>machine-learning</title><g id="グループ化_23878" data-name="グループ化 23878"><rect id="長方形_36469" data-name="長方形 36469" class="cls-1" x="201.79" y="45.6" width="57.6" height="707.74"/><path id="合体_2" data-name="合体 2" class="cls-2" d="M189.94,723a54,54,0,0,1,0-108h489V723Z"/><g id="グループ化_23877" data-name="グループ化 23877"><path id="パス_9631" data-name="パス 9631" class="cls-3" d="M698,55.06V598.51c0,11.61-6.81,16.69-15.8,16.69H242.81V40.65c2.55-.18,4.38-.55,6.2-.55,141.74,0,291.42.12,433.14,0C691.14,40.1,698,46.81,698,55.06Z"/><path class="cls-3" d="M698,666.34a18.74,18.74,0,0,0-37.48,0c0,.2,0,.39,0,.59h0v55.81H243V760H684.83c7.44-.1,13.06-6.91,13.06-12.52v-80C697.92,667.12,698,666.73,698,666.34Z"/><path id="パス_9634" data-name="パス 9634" class="cls-3" d="M204.18,40.85V615a57.66,57.66,0,0,0-55,23,50,50,0,0,0-9.4,33.11c2.18,32.06,19.49,46.15,64.32,52.44v35.4a90.18,90.18,0,0,1-89.45-44.11,101.24,101.24,0,0,1-12.47-50.34v-528a91.49,91.49,0,0,1,102-95.62Z"/></g><rect id="長方形_36470" data-name="長方形 36470" class="cls-4" x="242.93" y="40" width="8.23" height="574.66"/><path id="Fill_21" data-name="Fill 21" class="cls-4" d="M445.47,319.38,561,252.09,437.16,179.77,370,219V359.33l58.89,34.35v37.13l-90.73-52.92V237.57L313.38,252V396.45l123.78,72.23,8.31-4.85Z"/><path id="Fill_23" data-name="Fill 23" class="cls-4" d="M478.44,450.93h0V341.52L561,291.77V401.16ZM543.28,333l-47.15,28.28v36.57l47.15-28.26Z"/></g></svg>